<svg width="48" height="48" viewBox="0 0 48 48" fill="none" xmlns="http://www.w3.org/2000/svg">
<path d="M5 38C4.16667 38 3.45833 37.7083 2.875 37.125C2.29167 36.5417 2 35.8333 2 35V13C2 12.1667 2.29167 11.4583 2.875 10.875C3.45833 10.2917 4.16667 10 5 10H27C27.8333 10 28.5417 10.2917 29.125 10.875C29.7083 11.4583 30 12.1667 30 13V35C30 35.8333 29.7083 36.5417 29.125 37.125C28.5417 37.7083 27.8333 38 27 38H5ZM36 22C35.4333 22 34.9583 21.8083 34.575 21.425C34.1917 21.0417 34 20.5667 34 20V12C34 11.4333 34.1917 10.9583 34.575 10.575C34.9583 10.1917 35.4333 10 36 10H44C44.5667 10 45.0417 10.1917 45.425 10.575C45.8083 10.9583 46 11.4333 46 12V20C46 20.5667 45.8083 21.0417 45.425 21.425C45.0417 21.8083 44.5667 22 44 22H36ZM37 19H43V13H37V19ZM5 35H27V13H5V35ZM8 30H24L18.75 23L15 28L12.25 24.35L8 30ZM36 38C35.4333 38 34.9583 37.8083 34.575 37.425C34.1917 37.0417 34 36.5667 34 36V28C34 27.4333 34.1917 26.9583 34.575 26.575C34.9583 26.1917 35.4333 26 36 26H44C44.5667 26 45.0417 26.1917 45.425 26.575C45.8083 26.9583 46 27.4333 46 28V36C46 36.5667 45.8083 37.0417 45.425 37.425C45.0417 37.8083 44.5667 38 44 38H36ZM37 35H43V29H37V35Z" fill="#7D7D7D"/>
</svg>
