<svg width="75" height="50" viewBox="0 0 75 50" fill="none" xmlns="http://www.w3.org/2000/svg">
<path d="M0.5 3C0.5 1.61929 1.61929 0.5 3 0.5H72C73.3807 0.5 74.5 1.61929 74.5 3V47C74.5 48.3807 73.3807 49.5 72 49.5H3C1.61929 49.5 0.5 48.3807 0.5 47V3Z" fill="#FEFEFE" stroke="#7D7D7D"/>
<path d="M19 39C18.1667 39 17.4583 38.7083 16.875 38.125C16.2917 37.5417 16 36.8333 16 36V14C16 13.1667 16.2917 12.4583 16.875 11.875C17.4583 11.2917 18.1667 11 19 11H41C41.8333 11 42.5417 11.2917 43.125 11.875C43.7083 12.4583 44 13.1667 44 14V36C44 36.8333 43.7083 37.5417 43.125 38.125C42.5417 38.7083 41.8333 39 41 39H19ZM50 23C49.4333 23 48.9583 22.8083 48.575 22.425C48.1917 22.0417 48 21.5667 48 21V13C48 12.4333 48.1917 11.9583 48.575 11.575C48.9583 11.1917 49.4333 11 50 11H58C58.5667 11 59.0417 11.1917 59.425 11.575C59.8083 11.9583 60 12.4333 60 13V21C60 21.5667 59.8083 22.0417 59.425 22.425C59.0417 22.8083 58.5667 23 58 23H50ZM51 20H57V14H51V20ZM19 36H41V14H19V36ZM22 31H38L32.75 24L29 29L26.25 25.35L22 31ZM50 39C49.4333 39 48.9583 38.8083 48.575 38.425C48.1917 38.0417 48 37.5667 48 37V29C48 28.4333 48.1917 27.9583 48.575 27.575C48.9583 27.1917 49.4333 27 50 27H58C58.5667 27 59.0417 27.1917 59.425 27.575C59.8083 27.9583 60 28.4333 60 29V37C60 37.5667 59.8083 38.0417 59.425 38.425C59.0417 38.8083 58.5667 39 58 39H50ZM51 36H57V30H51V36Z" fill="#008FFB"/>
</svg>
