<svg width="44" height="28" viewBox="0 0 44 28" fill="none" xmlns="http://www.w3.org/2000/svg">
<path d="M3 28C2.16667 28 1.45833 27.7083 0.875 27.125C0.291667 26.5417 0 25.8333 0 25V3C0 2.16667 0.291667 1.45833 0.875 0.875C1.45833 0.291667 2.16667 0 3 0H25C25.8333 0 26.5417 0.291667 27.125 0.875C27.7083 1.45833 28 2.16667 28 3V25C28 25.8333 27.7083 26.5417 27.125 27.125C26.5417 27.7083 25.8333 28 25 28H3ZM34 12C33.4333 12 32.9583 11.8083 32.575 11.425C32.1917 11.0417 32 10.5667 32 10V2C32 1.43333 32.1917 0.958333 32.575 0.575C32.9583 0.191666 33.4333 0 34 0H42C42.5667 0 43.0417 0.191666 43.425 0.575C43.8083 0.958333 44 1.43333 44 2V10C44 10.5667 43.8083 11.0417 43.425 11.425C43.0417 11.8083 42.5667 12 42 12H34ZM35 9H41V3H35V9ZM3 25H25V3H3V25ZM6 20H22L16.75 13L13 18L10.25 14.35L6 20ZM34 28C33.4333 28 32.9583 27.8083 32.575 27.425C32.1917 27.0417 32 26.5667 32 26V18C32 17.4333 32.1917 16.9583 32.575 16.575C32.9583 16.1917 33.4333 16 34 16H42C42.5667 16 43.0417 16.1917 43.425 16.575C43.8083 16.9583 44 17.4333 44 18V26C44 26.5667 43.8083 27.0417 43.425 27.425C43.0417 27.8083 42.5667 28 42 28H34ZM35 25H41V19H35V25Z" fill="#7D7D7D"/>
</svg>
