<svg width="48" height="48" viewBox="0 0 48 48" fill="none" xmlns="http://www.w3.org/2000/svg">
<path d="M6 34V31H33.5V34H6ZM6 25.5V22.5H33.5V25.5H6ZM6 17V14H33.5V17H6ZM40.5 34C40.0667 34 39.7083 33.8583 39.425 33.575C39.1417 33.2917 39 32.9333 39 32.5C39 32.0667 39.1417 31.7083 39.425 31.425C39.7083 31.1417 40.0667 31 40.5 31C40.9333 31 41.2917 31.1417 41.575 31.425C41.8583 31.7083 42 32.0667 42 32.5C42 32.9333 41.8583 33.2917 41.575 33.575C41.2917 33.8583 40.9333 34 40.5 34ZM40.5 25.5C40.0667 25.5 39.7083 25.3583 39.425 25.075C39.1417 24.7917 39 24.4333 39 24C39 23.5667 39.1417 23.2083 39.425 22.925C39.7083 22.6417 40.0667 22.5 40.5 22.5C40.9333 22.5 41.2917 22.6417 41.575 22.925C41.8583 23.2083 42 23.5667 42 24C42 24.4333 41.8583 24.7917 41.575 25.075C41.2917 25.3583 40.9333 25.5 40.5 25.5ZM40.5 17C40.0667 17 39.7083 16.8583 39.425 16.575C39.1417 16.2917 39 15.9333 39 15.5C39 15.0667 39.1417 14.7083 39.425 14.425C39.7083 14.1417 40.0667 14 40.5 14C40.9333 14 41.2917 14.1417 41.575 14.425C41.8583 14.7083 42 15.0667 42 15.5C42 15.9333 41.8583 16.2917 41.575 16.575C41.2917 16.8583 40.9333 17 40.5 17Z" fill="#008FFB"/>
</svg>
