<svg width="36" height="20" viewBox="0 0 36 20" fill="none" xmlns="http://www.w3.org/2000/svg">
<path d="M0 20V17H27.5V20H0ZM0 11.5V8.5H27.5V11.5H0ZM0 3V0H27.5V3H0ZM34.5 20C34.0667 20 33.7083 19.8583 33.425 19.575C33.1417 19.2917 33 18.9333 33 18.5C33 18.0667 33.1417 17.7083 33.425 17.425C33.7083 17.1417 34.0667 17 34.5 17C34.9333 17 35.2917 17.1417 35.575 17.425C35.8583 17.7083 36 18.0667 36 18.5C36 18.9333 35.8583 19.2917 35.575 19.575C35.2917 19.8583 34.9333 20 34.5 20ZM34.5 11.5C34.0667 11.5 33.7083 11.3583 33.425 11.075C33.1417 10.7917 33 10.4333 33 10C33 9.56667 33.1417 9.20833 33.425 8.925C33.7083 8.64167 34.0667 8.5 34.5 8.5C34.9333 8.5 35.2917 8.64167 35.575 8.925C35.8583 9.20833 36 9.56667 36 10C36 10.4333 35.8583 10.7917 35.575 11.075C35.2917 11.3583 34.9333 11.5 34.5 11.5ZM34.5 3C34.0667 3 33.7083 2.85833 33.425 2.575C33.1417 2.29167 33 1.93333 33 1.5C33 1.06667 33.1417 0.708333 33.425 0.425C33.7083 0.141667 34.0667 0 34.5 0C34.9333 0 35.2917 0.141667 35.575 0.425C35.8583 0.708333 36 1.06667 36 1.5C36 1.93333 35.8583 2.29167 35.575 2.575C35.2917 2.85833 34.9333 3 34.5 3Z" fill="#7D7D7D"/>
</svg>
